<svg xmlns="http://www.w3.org/2000/svg" viewBox="0 0 116.4 115">
<!-- SVG created with Arrow, by QuiverAI (https://quiver.ai) -->
  <style type="text/css">.cls-0 {fill:#090809;}</style>
  <path class="cls-0" d="m109.6 74.6c2.9-2.8 4.8-6.1 4.8-10.6v-12.7c0-4.3-1.6-8.2-4.9-11.3 3-2.7 4.9-6 4.9-11.1v-12.9c0-3.6-0.9-6.7-3.2-9.3-2.6-3.1-5.8-5.1-10.8-5.1h-13.6c-4.2 0-7.8 1.7-11 5-2.4-2.6-5.6-5.1-10.5-5.1h-14c-4.3 0-7.7 1.9-10.7 5-2.9-3-5.8-4.9-10.8-5h-14.2c-3.9 0-7 1.5-9.4 3.8-2.1 2.1-4.2 5.4-4.2 9.7v13.9c0 4 1.5 7.6 4.7 10.7-2.9 2.6-4.8 6.4-4.8 11v13.3c0 5 2 8 4.7 10.8-2.6 2.4-4.6 6.3-4.6 11.8v13.1c0 7.3 5.9 14 13.4 14.1h14.2c4.4 0 8-1.3 10.9-5.1 2.1 2.3 5.6 5.1 10.6 5.1h13.9c4.4 0 7.9-1.4 10.8-5.4 2.7 3 6.3 5.4 11.2 5.4h14c7.2 0 13.4-5.5 13.4-13.7v-13.6c0-4.6-1.8-8.6-4.8-11.7m-1.1 24.9c0 4.4-3.3 7.9-7.7 7.9h-13.9c-4.9 0-8.1-3.7-8.1-7.6v-5.6l-5.9-5.9v11.6c0 4.3-3.3 7.5-7.9 7.5h-13.9c-4.4 0-7.6-3.3-7.6-7.5v-13.1c-2-0.9-4.4-2.4-6.2-3.9v17c0 4-3.3 7.5-7.7 7.5h-13.7c-4 0-7.8-2.8-8.2-7.2-0.1-1.7-0.1-7.8-0.1-13.6 0-4 2.1-6.7 4.8-8.1 1.5-0.8 2.8-0.8 8.8-0.8h10.9c-1.3-1.6-2.8-3.9-3.8-6.1-0.7 0.1-1.4 0.1-2.1 0.1h-12c-2.6 0-6.2-3.2-6.5-6.7-0.1-0.8-0.1-2.6-0.1-14.4 0-4 3.1-8 7.2-8.1h13.5c1.2-2.6 2.7-4.7 3.6-6.4h-17.9c-2.4 0-6-2.8-6.3-6.5-0.1-0.8-0.1-6.5-0.1-13.2 0-2 0.3-4.4 2-6.2 1.9-2.2 4-2.9 7.4-2.9h11.9c2.1 0 4.4 0.2 6.1 1.9 1.5 1.4 2.4 3.3 2.4 5.7v16.2c1.8-1.5 4-2.6 6.1-3.6v-12.8c0.3-4 3.3-7.5 7.8-7.5h13.4c4 0 8.1 2.6 8.1 7.7v12.6c1.9 1 3.9 2.1 6 3.5v-16.1c0-2.6 1.1-4.4 2.8-5.9 1.6-1.5 3.4-1.8 5.2-1.8h12.8c2.3 0 4.1 0.1 6 1.8 1.8 1.5 2.9 3.6 2.9 6.5v13.3c0 4.6-3.3 7.3-6.3 7.3h-18.2c1.5 1.8 2.9 4 4.2 6.5h13c4.2 0 7.3 3.5 7.3 8v13.3c0 4.7-3.8 7.8-6.6 7.8h-14.7l5.8 6h8.4c3.5 0 7.1 3.4 7.1 8.1v13.7zm-29.2-26.6c3.4-4.1 5.6-9.2 5.6-15.9 0-10.9-8.5-26.2-26.7-27.1-14.3 0-26.2 11.1-27.2 25.6-0.5 15 11 28.5 27 28.5 5.2 0 9.9-1.4 14.9-4.4l20.7 20.6c1.4 1.3 3 1.9 4.5 1.4 1.3-0.2 2.2-1.1 2.9-2.3 0.6-1 0.7-3.3-0.6-5.1l-21.1-21.3zm-21.2 3.7c-11.1 0-18-8.1-19.6-15.3-1.7-8.8 1.8-15.5 7.9-20.3 3.1-2.4 6.8-4.5 11.7-4.5 11.5 0 19.8 9.1 19.8 20.6 0 9.2-7.4 19.5-19.8 19.5"/>
</svg>